<mxfile host="app.diagrams.net" modified="2023-06-26T19:06:07.384Z" agent="Mozilla/5.0 (Macintosh; Intel Mac OS X 10_15_7) AppleWebKit/605.1.15 (KHTML, like Gecko) Version/15.6.1 Safari/605.1.15" etag="t-jPaj_1PUai8rjcvncY" version="21.5.0" type="device">
  <diagram name="Страница 1" id="wuJakc9PLvz3Z4h4urWv">
    <mxGraphModel dx="1434" dy="844" grid="1" gridSize="10" guides="1" tooltips="1" connect="1" arrows="1" fold="1" page="1" pageScale="1" pageWidth="827" pageHeight="1169" math="0" shadow="0">
      <root>
        <mxCell id="0" />
        <mxCell id="1" parent="0" />
        <mxCell id="iUmTvshmK_P6R1JJXius-11" style="edgeStyle=orthogonalEdgeStyle;rounded=0;orthogonalLoop=1;jettySize=auto;html=1;exitX=0.5;exitY=1;exitDx=0;exitDy=0;entryX=0.471;entryY=-0.012;entryDx=0;entryDy=0;entryPerimeter=0;" edge="1" parent="1" source="iUmTvshmK_P6R1JJXius-1" target="iUmTvshmK_P6R1JJXius-2">
          <mxGeometry relative="1" as="geometry" />
        </mxCell>
        <mxCell id="iUmTvshmK_P6R1JJXius-1" value="start" style="rounded=1;whiteSpace=wrap;html=1;" vertex="1" parent="1">
          <mxGeometry x="354" y="30" width="120" height="50" as="geometry" />
        </mxCell>
        <mxCell id="iUmTvshmK_P6R1JJXius-6" style="edgeStyle=orthogonalEdgeStyle;rounded=0;orthogonalLoop=1;jettySize=auto;html=1;exitX=0.5;exitY=1;exitDx=0;exitDy=0;entryX=0.5;entryY=0;entryDx=0;entryDy=0;" edge="1" parent="1" source="iUmTvshmK_P6R1JJXius-2" target="iUmTvshmK_P6R1JJXius-3">
          <mxGeometry relative="1" as="geometry" />
        </mxCell>
        <mxCell id="iUmTvshmK_P6R1JJXius-2" value="size = 5&lt;br&gt;array1 = 143, 43, hello, world, res&lt;br&gt;array2 [array.Lenght]&lt;br&gt;count = 0&lt;br&gt;I = 0" style="rounded=0;whiteSpace=wrap;html=1;" vertex="1" parent="1">
          <mxGeometry x="317" y="120" width="206" height="80" as="geometry" />
        </mxCell>
        <mxCell id="iUmTvshmK_P6R1JJXius-7" style="edgeStyle=orthogonalEdgeStyle;rounded=0;orthogonalLoop=1;jettySize=auto;html=1;exitX=0.5;exitY=1;exitDx=0;exitDy=0;entryX=0.5;entryY=0;entryDx=0;entryDy=0;" edge="1" parent="1" source="iUmTvshmK_P6R1JJXius-3" target="iUmTvshmK_P6R1JJXius-4">
          <mxGeometry relative="1" as="geometry" />
        </mxCell>
        <mxCell id="iUmTvshmK_P6R1JJXius-18" style="edgeStyle=orthogonalEdgeStyle;rounded=0;orthogonalLoop=1;jettySize=auto;html=1;exitX=1;exitY=0.5;exitDx=0;exitDy=0;" edge="1" parent="1" source="iUmTvshmK_P6R1JJXius-3">
          <mxGeometry relative="1" as="geometry">
            <mxPoint x="580" y="280" as="targetPoint" />
          </mxGeometry>
        </mxCell>
        <mxCell id="iUmTvshmK_P6R1JJXius-3" value="I &amp;lt; array.Length" style="rhombus;whiteSpace=wrap;html=1;" vertex="1" parent="1">
          <mxGeometry x="320" y="240" width="200" height="80" as="geometry" />
        </mxCell>
        <mxCell id="iUmTvshmK_P6R1JJXius-13" style="edgeStyle=orthogonalEdgeStyle;rounded=0;orthogonalLoop=1;jettySize=auto;html=1;exitX=0.5;exitY=1;exitDx=0;exitDy=0;entryX=0.5;entryY=0;entryDx=0;entryDy=0;" edge="1" parent="1" source="iUmTvshmK_P6R1JJXius-4" target="iUmTvshmK_P6R1JJXius-12">
          <mxGeometry relative="1" as="geometry" />
        </mxCell>
        <mxCell id="iUmTvshmK_P6R1JJXius-20" style="edgeStyle=orthogonalEdgeStyle;rounded=0;orthogonalLoop=1;jettySize=auto;html=1;exitX=1;exitY=0.5;exitDx=0;exitDy=0;entryX=1;entryY=0.5;entryDx=0;entryDy=0;" edge="1" parent="1" source="iUmTvshmK_P6R1JJXius-4" target="iUmTvshmK_P6R1JJXius-14">
          <mxGeometry relative="1" as="geometry" />
        </mxCell>
        <mxCell id="iUmTvshmK_P6R1JJXius-4" value="array [I] &amp;lt;= 3" style="rhombus;whiteSpace=wrap;html=1;" vertex="1" parent="1">
          <mxGeometry x="320" y="350" width="200" height="80" as="geometry" />
        </mxCell>
        <mxCell id="iUmTvshmK_P6R1JJXius-8" value="yes" style="text;html=1;align=center;verticalAlign=middle;resizable=0;points=[];autosize=1;strokeColor=none;fillColor=none;" vertex="1" parent="1">
          <mxGeometry x="430" y="208" width="40" height="30" as="geometry" />
        </mxCell>
        <mxCell id="iUmTvshmK_P6R1JJXius-9" value="yes" style="text;html=1;align=center;verticalAlign=middle;resizable=0;points=[];autosize=1;strokeColor=none;fillColor=none;" vertex="1" parent="1">
          <mxGeometry x="430" y="328" width="40" height="30" as="geometry" />
        </mxCell>
        <mxCell id="iUmTvshmK_P6R1JJXius-16" style="edgeStyle=orthogonalEdgeStyle;rounded=0;orthogonalLoop=1;jettySize=auto;html=1;exitX=0.5;exitY=1;exitDx=0;exitDy=0;entryX=0.5;entryY=0;entryDx=0;entryDy=0;" edge="1" parent="1" source="iUmTvshmK_P6R1JJXius-12" target="iUmTvshmK_P6R1JJXius-14">
          <mxGeometry relative="1" as="geometry" />
        </mxCell>
        <mxCell id="iUmTvshmK_P6R1JJXius-12" value="array2[count] = array1 [I]&lt;br&gt;count++" style="rounded=0;whiteSpace=wrap;html=1;" vertex="1" parent="1">
          <mxGeometry x="315" y="480" width="210" height="60" as="geometry" />
        </mxCell>
        <mxCell id="iUmTvshmK_P6R1JJXius-17" style="edgeStyle=orthogonalEdgeStyle;rounded=0;orthogonalLoop=1;jettySize=auto;html=1;exitX=0;exitY=0.5;exitDx=0;exitDy=0;" edge="1" parent="1" source="iUmTvshmK_P6R1JJXius-14">
          <mxGeometry relative="1" as="geometry">
            <mxPoint x="420" y="220" as="targetPoint" />
            <Array as="points">
              <mxPoint x="300" y="630" />
              <mxPoint x="300" y="230" />
              <mxPoint x="421" y="230" />
            </Array>
          </mxGeometry>
        </mxCell>
        <mxCell id="iUmTvshmK_P6R1JJXius-14" value="I ++" style="rounded=0;whiteSpace=wrap;html=1;" vertex="1" parent="1">
          <mxGeometry x="320" y="600" width="200" height="60" as="geometry" />
        </mxCell>
        <mxCell id="iUmTvshmK_P6R1JJXius-15" value="yes" style="text;html=1;align=center;verticalAlign=middle;resizable=0;points=[];autosize=1;strokeColor=none;fillColor=none;" vertex="1" parent="1">
          <mxGeometry x="430" y="438" width="40" height="30" as="geometry" />
        </mxCell>
        <mxCell id="iUmTvshmK_P6R1JJXius-19" value="no" style="text;html=1;align=center;verticalAlign=middle;resizable=0;points=[];autosize=1;strokeColor=none;fillColor=none;" vertex="1" parent="1">
          <mxGeometry x="520" y="228" width="40" height="30" as="geometry" />
        </mxCell>
        <mxCell id="iUmTvshmK_P6R1JJXius-21" value="no" style="text;html=1;align=center;verticalAlign=middle;resizable=0;points=[];autosize=1;strokeColor=none;fillColor=none;" vertex="1" parent="1">
          <mxGeometry x="550" y="498" width="40" height="30" as="geometry" />
        </mxCell>
        <mxCell id="iUmTvshmK_P6R1JJXius-23" style="edgeStyle=orthogonalEdgeStyle;rounded=0;orthogonalLoop=1;jettySize=auto;html=1;exitX=1;exitY=0.5;exitDx=0;exitDy=0;" edge="1" parent="1">
          <mxGeometry relative="1" as="geometry">
            <mxPoint x="740" y="280" as="targetPoint" />
            <mxPoint x="700" y="280" as="sourcePoint" />
          </mxGeometry>
        </mxCell>
        <mxCell id="iUmTvshmK_P6R1JJXius-24" value="fin" style="rounded=1;whiteSpace=wrap;html=1;" vertex="1" parent="1">
          <mxGeometry x="740" y="250" width="120" height="60" as="geometry" />
        </mxCell>
        <mxCell id="iUmTvshmK_P6R1JJXius-25" value="print(array2)" style="shape=document;whiteSpace=wrap;html=1;boundedLbl=1;" vertex="1" parent="1">
          <mxGeometry x="590" y="240" width="120" height="80" as="geometry" />
        </mxCell>
      </root>
    </mxGraphModel>
  </diagram>
</mxfile>
